<svg width="80" height="45" viewBox="0 0 80 45" fill="none" xmlns="http://www.w3.org/2000/svg">
<rect width="80" height="45" fill="white"/>
<rect x="2" y="2" width="11" height="4" fill="black"/>
<rect x="67" y="39" width="11" height="4" fill="black"/>
<rect x="2" y="38" width="11" height="4" fill="black"/>
<rect x="66" y="2" width="12" height="4" fill="black"/>
<rect x="2" y="12" width="10" height="4" transform="rotate(-90 2 12)" fill="black"/>
<rect x="74" y="12" width="10" height="4" transform="rotate(-90 74 12)" fill="black"/>
<rect x="74" y="43" width="10" height="4" transform="rotate(-90 74 43)" fill="black"/>
<rect x="2" y="42" width="11" height="4" transform="rotate(-90 2 42)" fill="black"/>
<path d="M12.6641 14.6406C12.5013 14.2109 12.6543 13.9961 13.123 13.9961H14.6758C15.112 13.9961 15.4115 14.2207 15.5742 14.6699L18.5625 22.8242C18.7122 23.2409 18.8001 23.5208 18.8262 23.6641C18.8522 23.8008 18.8815 24.0319 18.9141 24.3574H18.9531C18.9857 24.0319 19.015 23.8008 19.041 23.6641C19.0671 23.5208 19.1549 23.2409 19.3047 22.8242L22.293 14.6699C22.4557 14.2207 22.7552 13.9961 23.1914 13.9961H24.7441C25.2129 13.9961 25.3659 14.2109 25.2031 14.6406L20.5352 27.209C20.3398 27.7363 20.0339 28 19.6172 28H18.25C17.8333 28 17.5273 27.7363 17.332 27.209L12.6641 14.6406ZM26.1602 25.2656C26.1602 23.9635 26.7819 23.0195 28.0254 22.4336C29.2689 21.8477 30.6882 21.5352 32.2832 21.4961V21.1055C32.2832 20.5065 32.1335 20.0833 31.834 19.8359C31.5345 19.5885 31.1178 19.4648 30.584 19.4648C30.2064 19.4648 29.8711 19.5202 29.5781 19.6309C29.2917 19.735 29.041 19.8587 28.8262 20.002C28.6178 20.1387 28.429 20.2786 28.2598 20.4219C27.9603 20.6823 27.7129 20.6953 27.5176 20.4609L26.707 19.4648C26.5052 19.2174 26.554 18.9635 26.8535 18.7031C27.0814 18.5013 27.3451 18.3255 27.6445 18.1758C27.9505 18.026 28.3542 17.8861 28.8555 17.7559C29.3568 17.6191 30.0078 17.5508 30.8086 17.5508C32.1628 17.5508 33.2012 17.8633 33.9238 18.4883C34.653 19.1133 35.0176 20.0345 35.0176 21.252V27.4141C35.0176 27.8047 34.8223 28 34.4316 28H32.8301C32.4785 28 32.3027 27.8047 32.3027 27.4141V27.1211H32.2832C31.8991 27.4922 31.4368 27.7656 30.8965 27.9414C30.3626 28.1107 29.8711 28.1953 29.4219 28.1953C28.3542 28.1953 27.5436 27.9349 26.9902 27.4141C26.4368 26.8867 26.1602 26.1706 26.1602 25.2656ZM29.0508 25.207C29.0508 25.4349 29.0964 25.6335 29.1875 25.8027C29.2786 25.9655 29.4219 26.0859 29.6172 26.1641C29.8125 26.2422 30.0306 26.2812 30.2715 26.2812C30.6035 26.2812 30.9258 26.2357 31.2383 26.1445C31.5508 26.0534 31.8991 25.8385 32.2832 25.5V23.3809C31.1895 23.5046 30.457 23.6641 30.0859 23.8594C29.7148 24.0547 29.4479 24.2565 29.2852 24.4648C29.1289 24.6732 29.0508 24.9206 29.0508 25.207ZM38.2695 28C37.8789 28 37.6836 27.8047 37.6836 27.4141V18.332C37.6836 17.9414 37.8789 17.7461 38.2695 17.7461H39.8125C40.2031 17.7461 40.3984 17.9414 40.3984 18.332V19.1328H40.4375C40.6068 18.7161 40.89 18.3483 41.2871 18.0293C41.6842 17.7103 42.153 17.5508 42.6934 17.5508C43.0645 17.5508 43.3704 17.5964 43.6113 17.6875C43.8392 17.7721 43.9271 17.9284 43.875 18.1562L43.6016 19.3184C43.543 19.5788 43.3672 19.6569 43.0742 19.5527C42.9049 19.4941 42.7422 19.4648 42.5859 19.4648C41.9609 19.4648 41.4434 19.8392 41.0332 20.5879C40.623 21.3366 40.418 22.4271 40.418 23.8594V27.4141C40.418 27.8047 40.2227 28 39.832 28H38.2695ZM45.3398 23.7422V18.332C45.3398 17.9414 45.5352 17.7461 45.9258 17.7461H47.4883C47.8789 17.7461 48.0742 17.9414 48.0742 18.332V23.0391C48.0742 24.4583 48.1719 25.3535 48.3672 25.7246C48.5625 26.0957 48.9727 26.2812 49.5977 26.2812C50.2617 26.2812 50.7663 26.0176 51.1113 25.4902C51.4564 24.9564 51.6289 23.8529 51.6289 22.1797V18.332C51.6289 17.9414 51.8242 17.7461 52.2148 17.7461H53.7773C54.168 17.7461 54.3633 17.9414 54.3633 18.332V27.4141C54.3633 27.8047 54.168 28 53.7773 28H52.2344C51.8438 28 51.6484 27.8047 51.6484 27.4141V26.8477H51.6094C51.3099 27.362 50.929 27.7168 50.4668 27.9121C50.0046 28.1009 49.4577 28.1953 48.8262 28.1953C47.8301 28.1953 47 27.8763 46.3359 27.2383C45.6719 26.6003 45.3398 25.4349 45.3398 23.7422ZM57.6055 28C57.2148 28 57.0195 27.8047 57.0195 27.4141V18.332C57.0195 17.9414 57.2148 17.7461 57.6055 17.7461H59.1484C59.5391 17.7461 59.7344 17.9414 59.7344 18.332V18.8984H59.7734C60.0729 18.3841 60.4538 18.0326 60.916 17.8438C61.3783 17.6484 61.9349 17.5508 62.5859 17.5508C63.6016 17.5508 64.4414 17.8698 65.1055 18.5078C65.7695 19.1458 66.1016 20.3112 66.1016 22.0039V27.4141C66.1016 27.8047 65.9062 28 65.5156 28H63.9531C63.5625 28 63.3672 27.8047 63.3672 27.4141V22.707C63.3672 21.2878 63.2695 20.3926 63.0742 20.0215C62.8789 19.6504 62.459 19.4648 61.8145 19.4648C61.1309 19.4648 60.6165 19.7318 60.2715 20.2656C59.9264 20.793 59.7539 21.8932 59.7539 23.5664V27.4141C59.7539 27.8047 59.5586 28 59.168 28H57.6055Z" fill="black"/>
</svg>
